<svg width="38" height="38" viewBox="0 0 38 38" fill="none" xmlns="http://www.w3.org/2000/svg">
<path d="M19.0001 10.6667C16.7899 10.6667 14.6703 11.5447 13.1075 13.1075C11.5447 14.6703 10.6667 16.7899 10.6667 19C10.6667 21.2102 11.5447 23.3298 13.1075 24.8926C14.6703 26.4554 16.7899 27.3334 19.0001 27.3334C21.2102 27.3334 23.3298 26.4554 24.8926 24.8926C26.4554 23.3298 27.3334 21.2102 27.3334 19C27.3334 16.7899 26.4554 14.6703 24.8926 13.1075C23.3298 11.5447 21.2102 10.6667 19.0001 10.6667Z" fill="#141414"/>
<path fill-rule="evenodd" clip-rule="evenodd" d="M19.0001 0.666687C19.4421 0.666687 19.866 0.842282 20.1786 1.15484C20.4912 1.4674 20.6667 1.89133 20.6667 2.33335V4.00002C20.6667 4.44205 20.4912 4.86597 20.1786 5.17853C19.866 5.49109 19.4421 5.66669 19.0001 5.66669C18.5581 5.66669 18.1341 5.49109 17.8216 5.17853C17.509 4.86597 17.3334 4.44205 17.3334 4.00002V2.33335C17.3334 1.89133 17.509 1.4674 17.8216 1.15484C18.1341 0.842282 18.5581 0.666687 19.0001 0.666687ZM4.48841 4.48835C4.80096 4.1759 5.22481 4.00038 5.66675 4.00038C6.10869 4.00038 6.53253 4.1759 6.84508 4.48835L9.34508 6.98835C9.64868 7.30269 9.81667 7.72369 9.81287 8.16069C9.80907 8.59768 9.63379 9.0157 9.32478 9.32472C9.01576 9.63373 8.59774 9.80901 8.16075 9.81281C7.72375 9.81661 7.30275 9.64862 6.98841 9.34502L4.48841 6.84502C4.17596 6.53247 4.00044 6.10863 4.00044 5.66669C4.00044 5.22475 4.17596 4.8009 4.48841 4.48835ZM33.5117 4.48835C33.8242 4.8009 33.9997 5.22475 33.9997 5.66669C33.9997 6.10863 33.8242 6.53247 33.5117 6.84502L31.0117 9.34502C30.858 9.5042 30.6741 9.63117 30.4708 9.71852C30.2674 9.80587 30.0487 9.85185 29.8274 9.85377C29.6061 9.85569 29.3867 9.81352 29.1818 9.72972C28.977 9.64592 28.7909 9.52217 28.6344 9.36568C28.4779 9.20919 28.3542 9.0231 28.2704 8.81828C28.1866 8.61345 28.1444 8.39398 28.1463 8.17268C28.1483 7.95139 28.1942 7.73269 28.2816 7.52935C28.3689 7.32601 28.4959 7.1421 28.6551 6.98835L31.1551 4.48835C31.4676 4.1759 31.8915 4.00038 32.3334 4.00038C32.7754 4.00038 33.1992 4.1759 33.5117 4.48835ZM0.666748 19C0.666748 18.558 0.842343 18.1341 1.1549 17.8215C1.46746 17.5089 1.89139 17.3334 2.33341 17.3334H4.00008C4.44211 17.3334 4.86603 17.5089 5.17859 17.8215C5.49115 18.1341 5.66675 18.558 5.66675 19C5.66675 19.442 5.49115 19.866 5.17859 20.1785C4.86603 20.4911 4.44211 20.6667 4.00008 20.6667H2.33341C1.89139 20.6667 1.46746 20.4911 1.1549 20.1785C0.842343 19.866 0.666748 19.442 0.666748 19ZM32.3334 19C32.3334 18.558 32.509 18.1341 32.8216 17.8215C33.1341 17.5089 33.5581 17.3334 34.0001 17.3334H35.6667C36.1088 17.3334 36.5327 17.5089 36.8453 17.8215C37.1578 18.1341 37.3334 18.558 37.3334 19C37.3334 19.442 37.1578 19.866 36.8453 20.1785C36.5327 20.4911 36.1088 20.6667 35.6667 20.6667H34.0001C33.5581 20.6667 33.1341 20.4911 32.8216 20.1785C32.509 19.866 32.3334 19.442 32.3334 19ZM9.34508 28.655C9.65753 28.9676 9.83306 29.3914 9.83306 29.8334C9.83306 30.2753 9.65753 30.6991 9.34508 31.0117L6.84508 33.5117C6.53074 33.8153 6.10974 33.9833 5.67275 33.9795C5.23575 33.9757 4.81773 33.8004 4.50872 33.4914C4.1997 33.1824 4.02442 32.7643 4.02062 32.3274C4.01683 31.8904 4.18482 31.4694 4.48841 31.155L6.98841 28.655C7.30096 28.3426 7.72481 28.167 8.16675 28.167C8.60869 28.167 9.03253 28.3426 9.34508 28.655ZM28.6551 28.655C28.9676 28.3426 29.3915 28.167 29.8334 28.167C30.2754 28.167 30.6992 28.3426 31.0117 28.655L33.5117 31.155C33.8153 31.4694 33.9833 31.8904 33.9795 32.3274C33.9757 32.7643 33.8005 33.1824 33.4914 33.4914C33.1824 33.8004 32.7644 33.9757 32.3274 33.9795C31.8904 33.9833 31.4694 33.8153 31.1551 33.5117L28.6551 31.0117C28.3426 30.6991 28.1671 30.2753 28.1671 29.8334C28.1671 29.3914 28.3426 28.9676 28.6551 28.655ZM19.0001 32.3334C19.4421 32.3334 19.866 32.5089 20.1786 32.8215C20.4912 33.1341 20.6667 33.558 20.6667 34V35.6667C20.6667 36.1087 20.4912 36.5326 20.1786 36.8452C19.866 37.1578 19.4421 37.3334 19.0001 37.3334C18.5581 37.3334 18.1341 37.1578 17.8216 36.8452C17.509 36.5326 17.3334 36.1087 17.3334 35.6667V34C17.3334 33.558 17.509 33.1341 17.8216 32.8215C18.1341 32.5089 18.5581 32.3334 19.0001 32.3334Z" fill="#141414"/>
</svg>
